Coordinates
version=1
nRows=14
nColumns=24
inDegrees=yes

Units are S.I. units (second, meters, Newtons, ...)
Angles are in degrees.

endheader
time	pelvis_tilt	pelvis_list	pelvis_rotation	pelvis_tx	pelvis_ty	pelvis_tz	hip_flexion_r	hip_adduction_r	hip_rotation_r	knee_angle_r	ankle_angle_r	subtalar_angle_r	mtp_angle_r	hip_flexion_l	hip_adduction_l	hip_rotation_l	knee_angle_l	ankle_angle_l	subtalar_angle_l	mtp_angle_l	lumbar_extension	lumbar_bending	lumbar_rotation
      1.76650000	      1.84417200	      3.79283655	     -1.17834573	      1.44039824	      1.02611438	      0.24466878	     13.02535263	     -1.98809677	      0.74103392	    -66.28550935	      4.16693363	    -19.39711545	      3.28900600	      2.24400550	      8.41273163	      1.58925760	     -9.46633205	      4.07444534	    -12.60729688	      3.64073322	     -2.13071036	     -4.97919399	      3.72170714
      1.77066667	      1.85815253	      3.70560348	     -0.88118755	      1.44516152	      1.02658056	      0.24387787	     13.46399726	     -1.86229820	      0.60729148	    -65.87576078	      4.30709607	    -19.53897590	      3.19035889	      1.74639207	      8.35448607	      1.92614489	     -9.12604671	      4.10948793	    -12.60470023	      3.57497997	     -2.16987799	     -4.87251079	      3.46615995
      1.77483333	      1.84040049	      3.61261261	     -0.60107348	      1.44992615	      1.02697041	      0.24312531	     13.93475527	     -1.72554690	      0.49979730	    -65.44011920	      4.42066019	    -19.70143071	      3.09463138	      1.28889977	      8.28193173	      2.22480756	     -8.79808780	      4.15397440	    -12.57297378	      3.51644754	     -2.17456206	     -4.75568199	      3.23891660
      1.77900000	      1.83710172	      3.53499020	     -0.30604423	      1.45468604	      1.02734951	      0.24237046	     14.37931043	     -1.61682979	      0.37777193	    -64.98001120	      4.54762300	    -19.85312873	      2.95208495	      0.81007600	      8.22221071	      2.55576884	     -8.44850592	      4.14668892	    -12.57669068	      3.42809333	     -2.19522763	     -4.66482866	      2.93288639
      1.78316667	      1.83443137	      3.44319619	     -0.01297040	      1.45939502	      1.02769034	      0.24162830	     14.81773865	     -1.49618674	      0.25868115	    -64.48801615	      4.65006228	    -19.99352887	      2.80789608	      0.34978176	      8.14149813	      2.86732672	     -8.13730766	      4.19239114	    -12.55009333	      3.34565756	     -2.22104110	     -4.55624159	      2.68387356
      1.78733333	      1.80063199	      3.35034141	      0.26436245	      1.46413720	      1.02795700	      0.24089569	     15.28315705	     -1.38241726	      0.14976976	    -63.97137400	      4.79042242	    -20.07642084	      2.77171063	     -0.06240143	      8.05190085	      3.10208106	     -7.85281296	      4.26384584	    -12.42492585	      3.32815446	     -2.20183693	     -4.42858978	      2.60967331
      1.79150000	      1.80714268	      3.25886795	      0.54830155	      1.46884383	      1.02826689	      0.24018905	     15.69136864	     -1.26721360	      0.04803520	    -63.41333208	      4.84159716	    -20.22669726	      2.66493784	     -0.53834387	      7.96371854	      3.42815684	     -7.52461105	      4.32303930	    -12.45378403	      3.27543746	     -2.23848669	     -4.32575630	      2.24965395
      1.79566667	      1.80109758	      3.17566826	      0.84545586	      1.47354487	      1.02851491	      0.23948555	     16.10523599	     -1.17130550	     -0.06458493	    -62.84047890	      4.98021554	    -20.29232918	      2.59207282	     -0.97480913	      7.87534299	      3.71763282	     -7.24278776	      4.36069908	    -12.38914472	      3.24020505	     -2.25561724	     -4.24257733	      2.07644319
      1.79983333	      1.79060565	      3.09566054	      1.11743820	      1.47825528	      1.02871868	      0.23879029	     16.52308259	     -1.08345015	     -0.15816155	    -62.24764226	      5.05527178	    -20.40395436	      2.48074948	     -1.42312414	      7.79239278	      4.02119696	     -6.92728753	      4.40650070	    -12.40797050	      3.18927083	     -2.26779131	     -4.13034166	      1.77798043
      1.80400000	      1.77310807	      3.01697306	      1.40950344	      1.48294197	      1.02889407	      0.23810337	     16.93363893	     -1.00536762	     -0.26816126	    -61.62435696	      5.18792576	    -20.45110618	      2.43202945	     -1.83777344	      7.69907653	      4.27221641	     -6.65549953	      4.43091730	    -12.30811628	      3.16847101	     -2.27603198	     -4.03259986	      1.67155854
      1.80816667	      1.77335502	      2.93848436	      1.68686285	      1.48760154	      1.02905530	      0.23744426	     17.32086392	     -0.92486749	     -0.35595228	    -60.97358339	      5.24982559	    -20.53330537	      2.32025848	     -2.28919722	      7.60761302	      4.59239584	     -6.35263520	      4.49148015	    -12.35758939	      3.12069285	     -2.30185730	     -3.94698940	      1.33210843
      1.81233333	      1.76050495	      2.87422877	      1.95296891	      1.49227276	      1.02915881	      0.23681050	     17.71671170	     -0.86331246	     -0.43046471	    -60.31184074	      5.34528154	    -20.57127478	      2.20003211	     -2.72348042	      7.52682110	      4.88502943	     -6.04882893	      4.50889155	    -12.38083338	      3.07083518	     -2.31557536	     -3.87354022	      1.11350837
      1.81650000	      1.73136845	      2.80730244	      2.23823705	      1.49695245	      1.02921317	      0.23616989	     18.11297059	     -0.80700962	     -0.51824820	    -59.62077282	      5.43599837	    -20.60708942	      2.08614067	     -3.12527271	      7.43709523	      5.17888540	     -5.77373504	      4.54826796	    -12.36930255	      3.02347066	     -2.30871258	     -3.79862605	      0.90540025
      1.82066667	      1.71912481	      2.73848539	      2.50019174	      1.50161403	      1.02926572	      0.23556474	     18.48644068	     -0.74697579	     -0.58534255	    -58.89985724	      5.52547645	    -20.62362622	      1.98310523	     -3.54356224	      7.34153369	      5.43683359	     -5.49988805	      4.59130859	    -12.34798228	      2.98285352	     -2.31818976	     -3.72188399	      0.71564820
